<svg width="34" height="29" viewBox="0 0 34 29" fill="none" xmlns="http://www.w3.org/2000/svg">
<rect x="4" y="4" width="1" height="1" rx="0.5" fill="#FD8936"/>
<rect x="4" y="9" width="1" height="1" rx="0.5" fill="#FD8936"/>
<rect x="4" y="14" width="1" height="1" rx="0.5" fill="#FD8936"/>
<rect x="4" y="19" width="1" height="1" rx="0.5" fill="#FD8936"/>
<rect x="14" y="19" width="1" height="1" rx="0.5" fill="#FD8936"/>
<rect x="19" y="19" width="1" height="1" rx="0.5" fill="#FD8936"/>
<rect x="24" y="19" width="1" height="1" rx="0.5" fill="#FD8936"/>
<rect x="29" y="19" width="1" height="1" rx="0.5" fill="#FD8936"/>
<rect x="9" y="19" width="1" height="1" rx="0.5" fill="#FD8936"/>
<rect x="4" y="24" width="1" height="1" rx="0.5" fill="#FD8936"/>
<rect x="9" y="24" width="1" height="1" rx="0.5" fill="#FD8936"/>
<rect x="14" y="24" width="1" height="1" rx="0.5" fill="#FD8936"/>
<rect x="19" y="24" width="1" height="1" rx="0.5" fill="#FD8936"/>
<rect x="24" y="24" width="1" height="1" rx="0.5" fill="#FD8936"/>
<rect x="29" y="24" width="1" height="1" rx="0.5" fill="#FD8936"/>
<rect x="9" y="14" width="1" height="1" rx="0.5" fill="#FD8936"/>
<rect x="14" y="14" width="1" height="1" rx="0.5" fill="#FD8936"/>
<rect x="19" y="14" width="1" height="1" rx="0.5" fill="#FD8936"/>
<rect x="24" y="14" width="1" height="1" rx="0.5" fill="#FD8936"/>
<rect x="29" y="14" width="1" height="1" rx="0.5" fill="#FD8936"/>
<rect x="14" y="4" width="1" height="1" rx="0.5" fill="#FD8936"/>
<rect x="14" y="9" width="1" height="1" rx="0.5" fill="#FD8936"/>
<rect x="19" y="4" width="1" height="1" rx="0.5" fill="#FD8936"/>
<rect x="19" y="9" width="1" height="1" rx="0.5" fill="#FD8936"/>
<rect x="24" y="9" width="1" height="1" rx="0.5" fill="#FD8936"/>
<rect x="29" y="9" width="1" height="1" rx="0.5" fill="#FD8936"/>
<rect x="24" y="4" width="1" height="1" rx="0.5" fill="#FD8936"/>
<rect x="29" y="4" width="1" height="1" rx="0.5" fill="#FD8936"/>
<rect x="9" y="4" width="1" height="1" rx="0.5" fill="#FD8936"/>
<rect x="9" y="9" width="1" height="1" rx="0.5" fill="#FD8936"/>
</svg>
